<svg width="57" height="62" viewBox="0 0 57 62" fill="none" xmlns="http://www.w3.org/2000/svg">
<path d="M56.2929 47.1328C52.8233 52.5725 47.6924 56.7487 41.6615 59.0416C35.6306 61.3346 29.0212 61.6221 22.814 59.8616C16.6068 58.101 11.1326 54.3862 7.20364 49.2684C3.27469 44.1505 1.1004 37.9024 1.00339 31.4511C0.906385 24.9997 2.89183 18.689 6.66513 13.4554C10.4384 8.22172 15.7985 4.344 21.9499 2.39762C28.1014 0.451236 34.7165 0.539915 40.8135 2.6505C46.9106 4.76108 52.1648 8.78109 55.7964 14.114" stroke="#2A2A2A"/>
<circle cx="30.5" cy="30.5" r="23.5" fill="#FFC700"/>
<path d="M16 30.5C15.7239 30.5 15.5 30.7239 15.5 31C15.5 31.2761 15.7239 31.5 16 31.5V30.5ZM46.3536 31.3536C46.5488 31.1583 46.5488 30.8417 46.3536 30.6464L43.1716 27.4645C42.9763 27.2692 42.6597 27.2692 42.4645 27.4645C42.2692 27.6597 42.2692 27.9763 42.4645 28.1716L45.2929 31L42.4645 33.8284C42.2692 34.0237 42.2692 34.3403 42.4645 34.5355C42.6597 34.7308 42.9763 34.7308 43.1716 34.5355L46.3536 31.3536ZM16 31.5H46V30.5H16V31.5Z" fill="white"/>
</svg>
