<svg width="24" height="24" viewBox="0 0 24 24" fill="none" xmlns="http://www.w3.org/2000/svg">
<circle cx="12" cy="12" r="12" fill="#2A2A2A"/>
<path d="M11.0025 14.3225C10.623 16.367 10.161 18.3275 8.79 19.3513C8.36775 16.2613 9.41175 13.94 9.89625 11.4763C9.06975 10.0438 9.996 7.16002 11.739 7.87027C13.884 8.74477 9.88125 13.1968 12.5685 13.7533C15.3742 14.3338 16.5202 8.74102 14.7802 6.92152C12.2662 4.29577 7.4625 6.86227 8.0535 10.622C8.1975 11.5415 9.11925 11.8205 8.42175 13.0895C6.813 12.7213 6.333 11.4148 6.39525 9.67252C6.49425 6.82252 8.883 4.82602 11.2785 4.55002C14.3085 4.20052 17.1517 5.69527 17.544 8.63002C17.9865 11.942 16.1767 15.53 12.9375 15.2713C12.0592 15.2015 11.6902 14.7538 11.0025 14.3225Z" fill="white"/>
</svg>
