<svg width="24" height="24" viewBox="0 0 24 24" fill="none" xmlns="http://www.w3.org/2000/svg">
<circle cx="12" cy="12" r="12" fill="#2A2A2A"/>
<g clip-path="url(#clip0_61_128)">
<path d="M12.3759 12.8607H7.19654V10.6585H12.3759C12.6784 10.6585 12.8888 10.7152 12.9943 10.8141C13.0999 10.9131 13.1653 11.0966 13.1653 11.3647V12.1554C13.1653 12.4379 13.0999 12.6214 12.9943 12.7203C12.8888 12.8193 12.6784 12.8615 12.3759 12.8615V12.8607ZM12.7312 8.58239H5V17.9999H7.19654V14.936H11.2445L13.1653 17.9999H15.625L13.5072 14.9216C14.288 14.7973 14.6386 14.5402 14.9277 14.1165C15.2169 13.6929 15.3619 13.0155 15.3619 12.1114V11.4053C15.3619 10.8691 15.3091 10.4454 15.2169 10.1207C15.1247 9.79594 14.9671 9.51348 14.7434 9.25978C14.507 9.0196 14.2439 8.85047 13.928 8.73715C13.612 8.6382 13.2173 8.58154 12.7312 8.58154V8.58239Z" fill="white"/>
<path d="M17.3125 8.58163C18.2445 8.58163 19 7.77985 19 6.79082C19 5.80178 18.2445 5 17.3125 5C16.3805 5 15.625 5.80178 15.625 6.79082C15.625 7.77985 16.3805 8.58163 17.3125 8.58163Z" fill="white"/>
</g>
<defs>
<clipPath id="clip0_61_128">
<rect width="14" height="13" fill="white" transform="translate(5 5)"/>
</clipPath>
</defs>
</svg>
