<svg width="139" height="68" viewBox="0 0 139 68" fill="none" xmlns="http://www.w3.org/2000/svg">
<g clip-path="url(#clip0_193_266)">
<path d="M23.8457 39.8013H15.3817V56.7633H11.8193V36.9421H23.8457V39.8013Z" fill="#1E2B35"/>
<path d="M37.1767 48.1856H34.6637V56.7633H31.1221V36.9421H34.6637V45.4369H36.866L42.1128 36.9421H45.9789L40.0417 46.459L46.7729 56.7633H42.6996L37.1767 48.1856Z" fill="#1E2B35"/>
<path d="M77.6257 39.6908H72.1027V56.7633H68.5128V39.6908H62.9346V36.9283H77.6257V39.6908Z" fill="#1E2B35"/>
<path d="M100.104 56.7633H96.535V48.013H88.5819V56.7633H85.0127V36.9421H88.5819V45.1261H96.535V36.9421H100.104V56.7633Z" fill="#1E2B35"/>
<path d="M116.094 48.1856H113.574V56.7633H110.039V36.9421H113.574V45.4369H115.783L121.051 36.9421H124.896L118.979 46.459L125.717 56.7633H121.617L116.094 48.1856Z" fill="#1E2B35"/>
<path d="M26.6071 17.0173L15.789 30.388H1.38086V26.9348H14.1528L24.5084 14.1097L26.6071 17.0173ZM50.8048 17.0518H50.7357L44.5224 16.002L43.9563 16.5891L59.324 25.7883L59.4206 25.8436L50.8669 17.114L50.8048 17.0518ZM63.5146 6.72679V12.9425L59.9315 15.3252V7.3898L51.1845 8.97826L45.4337 14.9937L51.3225 16.0227L63.1211 28.0398L65.8825 30.6228L89.8523 5.59415L90.9915 4.39935L94.2086 1.03595L63.5146 6.72679ZM63.839 30.3189L59.4552 25.8436L50.8669 17.114L50.8048 17.0518H50.7357L44.5224 16.002L42.8033 15.6981L26.2343 12.9356L29.2996 17.2175L30.8391 19.3378L38.9165 30.6297H64.129L63.839 30.3189ZM56.0516 3.8054V11.9825L59.9039 12.908V1.98212L56.0516 3.8054ZM115.293 26.7414L95.0509 3.2598L92.6484 5.75299L113.712 30.2084H137.668V26.7552L115.293 26.7414ZM87.7605 18.6472C87.7569 18.6862 87.7569 18.7255 87.7605 18.7646C87.7535 18.7941 87.7535 18.8248 87.7605 18.8544H91.1295V14.9039C90.2113 15.017 89.3648 15.458 88.7458 16.1457C88.1268 16.8335 87.7769 17.7218 87.7605 18.6472ZM92.5931 14.9454V18.8544H95.6584C95.6654 18.8248 95.6654 18.7941 95.6584 18.7646C95.6621 18.7255 95.6621 18.6862 95.6584 18.6472C95.6456 17.777 95.3372 16.9371 94.7838 16.2656C94.2305 15.5941 93.4652 15.1309 92.6138 14.9523L92.5931 14.9454ZM25.3023 23.7026V24.2966H26.9247V21.8172C26.4758 21.8903 26.067 22.1194 25.7702 22.4643C25.4735 22.8091 25.3078 23.2476 25.3023 23.7026ZM27.6841 21.8172V24.2966H29.3203V23.7026C29.3129 23.246 29.1448 22.8066 28.8456 22.4617C28.5463 22.1169 28.135 21.8886 27.6841 21.8172ZM25.3023 25.0286V27.1005H26.9247V25.0286H25.3023ZM27.6841 25.0286V27.1005H29.3203V25.0286H27.6841ZM87.7467 18.7715V18.8613C87.7463 18.8301 87.7534 18.7993 87.7674 18.7715H87.7467ZM87.7467 20.3392V24.3449H91.1295V20.3392H87.7467ZM92.5793 20.3392V24.3449H95.6584V20.3392H92.5793ZM95.6515 18.7715C95.6585 18.801 95.6585 18.8317 95.6515 18.8613V18.7715Z" fill="url(#paint0_linear_193_266)"/>
<path d="M44.5224 16.002L50.7357 17.0518H50.8048L50.8669 17.114M44.5224 16.002L43.9563 16.5891L59.324 25.7883L59.4206 25.8436L50.8669 17.114M44.5224 16.002L42.8033 15.6981L26.2343 12.9356L29.2996 17.2175L30.8391 19.3378L38.9165 30.6297H64.129L63.839 30.3189L59.4552 25.8436L50.8669 17.114M26.6071 17.0173L15.789 30.388H1.38086V26.9348H14.1528L24.5084 14.1097L26.6071 17.0173ZM63.5146 6.72679V12.9425L59.9315 15.3252V7.3898L51.1845 8.97826L45.4337 14.9937L51.3225 16.0227L63.1211 28.0398L65.8825 30.6228L89.8523 5.59415L90.9915 4.39935L94.2086 1.03595L63.5146 6.72679ZM56.0516 3.8054V11.9825L59.9039 12.908V1.98212L56.0516 3.8054ZM115.293 26.7414L95.0509 3.2598L92.6484 5.75299L113.712 30.2084H137.668V26.7552L115.293 26.7414ZM87.7605 18.6472C87.7569 18.6862 87.7569 18.7255 87.7605 18.7646C87.7535 18.7941 87.7535 18.8248 87.7605 18.8544H91.1295V14.9039C90.2113 15.017 89.3648 15.458 88.7458 16.1457C88.1268 16.8335 87.7769 17.7218 87.7605 18.6472ZM92.5931 14.9454V18.8544H95.6584C95.6654 18.8248 95.6654 18.7941 95.6584 18.7646C95.6621 18.7255 95.6621 18.6862 95.6584 18.6472C95.6456 17.777 95.3372 16.9371 94.7838 16.2656C94.2305 15.5941 93.4652 15.1309 92.6138 14.9523L92.5931 14.9454ZM25.3023 23.7026V24.2966H26.9247V21.8172C26.4758 21.8903 26.067 22.1194 25.7702 22.4643C25.4735 22.8091 25.3078 23.2476 25.3023 23.7026ZM27.6841 21.8172V24.2966H29.3203V23.7026C29.3129 23.246 29.1448 22.8066 28.8456 22.4617C28.5463 22.1169 28.135 21.8886 27.6841 21.8172ZM25.3023 25.0286V27.1005H26.9247V25.0286H25.3023ZM27.6841 25.0286V27.1005H29.3203V25.0286H27.6841ZM87.7467 18.7715V18.8613C87.7463 18.8301 87.7534 18.7993 87.7674 18.7715H87.7467ZM87.7467 20.3392V24.3449H91.1295V20.3392H87.7467ZM92.5793 20.3392V24.3449H95.6584V20.3392H92.5793ZM95.6515 18.7715C95.6585 18.801 95.6585 18.8317 95.6515 18.8613V18.7715Z" stroke="url(#paint1_linear_193_266)" stroke-opacity="0.25" stroke-width="3" stroke-linejoin="round"/>
<path d="M137.965 63.5109H1.03564V66.964H137.965V63.5109Z" fill="url(#paint2_linear_193_266)" stroke="url(#paint3_linear_193_266)" stroke-opacity="0.25" stroke-width="3" stroke-linejoin="round"/>
</g>
<defs>
<linearGradient id="paint0_linear_193_266" x1="1.36705" y1="15.8432" x2="137.633" y2="15.8432" gradientUnits="userSpaceOnUse">
<stop stop-color="#CE9728"/>
<stop offset="0.15" stop-color="#865B11"/>
<stop offset="0.3" stop-color="#E7B846"/>
<stop offset="0.4" stop-color="#FFEC7A"/>
<stop offset="0.55" stop-color="#E7B846"/>
<stop offset="0.7" stop-color="#CE9728"/>
<stop offset="0.85" stop-color="#FFE173"/>
<stop offset="1" stop-color="#F2B93A"/>
</linearGradient>
<linearGradient id="paint1_linear_193_266" x1="0.33149" y1="15.8432" x2="138.669" y2="15.8432" gradientUnits="userSpaceOnUse">
<stop stop-color="#CE9728"/>
<stop offset="0.15" stop-color="#865B11"/>
<stop offset="0.3" stop-color="#E7B846"/>
<stop offset="0.4" stop-color="#FFEC7A"/>
<stop offset="0.55" stop-color="#E7B846"/>
<stop offset="0.7" stop-color="#CE9728"/>
<stop offset="0.85" stop-color="#FFE173"/>
<stop offset="1" stop-color="#F2B93A"/>
</linearGradient>
<linearGradient id="paint2_linear_193_266" x1="1.03564" y1="65.2375" x2="137.965" y2="65.2375" gradientUnits="userSpaceOnUse">
<stop stop-color="#CE9728"/>
<stop offset="0.15" stop-color="#865B11"/>
<stop offset="0.3" stop-color="#E7B846"/>
<stop offset="0.4" stop-color="#FFEC7A"/>
<stop offset="0.55" stop-color="#E7B846"/>
<stop offset="0.7" stop-color="#CE9728"/>
<stop offset="0.85" stop-color="#FFE173"/>
<stop offset="1" stop-color="#F2B93A"/>
</linearGradient>
<linearGradient id="paint3_linear_193_266" x1="8.29475e-05" y1="65.2375" x2="139" y2="65.2375" gradientUnits="userSpaceOnUse">
<stop stop-color="#CE9728"/>
<stop offset="0.15" stop-color="#865B11"/>
<stop offset="0.3" stop-color="#E7B846"/>
<stop offset="0.4" stop-color="#FFEC7A"/>
<stop offset="0.55" stop-color="#E7B846"/>
<stop offset="0.7" stop-color="#CE9728"/>
<stop offset="0.85" stop-color="#FFE173"/>
<stop offset="1" stop-color="#F2B93A"/>
</linearGradient>
<clipPath id="clip0_193_266">
<rect width="139" height="68" fill="white"/>
</clipPath>
</defs>
</svg>
