<svg width="24" height="24" viewBox="0 0 24 24" fill="none" xmlns="http://www.w3.org/2000/svg">
<circle cx="12" cy="12" r="12" fill="#2A2A2A"/>
<g clip-path="url(#clip0_61_131)">
<path d="M18.9337 11.8133C18.9337 11.7439 18.8773 11.6864 18.8078 11.6831C16.3157 11.5887 14.799 11.2709 13.7379 10.2098C12.6747 9.14655 12.3579 7.62874 12.2635 5.13122C12.2613 5.06179 12.2038 5.00537 12.1333 5.00537H11.8425C11.7731 5.00537 11.7156 5.06179 11.7124 5.13122C11.618 7.62765 11.3012 9.14655 10.2379 10.2098C9.17578 11.2719 7.66012 11.5887 5.16804 11.6831C5.0986 11.6853 5.04218 11.7428 5.04218 11.8133V12.1041C5.04218 12.1735 5.0986 12.231 5.16804 12.2343C7.66012 12.3287 9.17686 12.6465 10.2379 13.7076C11.299 14.7687 11.6158 16.2822 11.7113 18.7699C11.7134 18.8393 11.7709 18.8958 11.8415 18.8958H12.1333C12.2027 18.8958 12.2602 18.8393 12.2635 18.7699C12.359 16.2822 12.6758 14.7687 13.7368 13.7076C14.799 12.6455 16.3146 12.3287 18.8067 12.2343C18.8762 12.2321 18.9326 12.1746 18.9326 12.1041V11.8133H18.9337Z" fill="white"/>
</g>
<defs>
<clipPath id="clip0_61_131">
<rect width="14" height="14" fill="white" transform="translate(5 5)"/>
</clipPath>
</defs>
</svg>
